<svg xmlns="http://www.w3.org/2000/svg" viewBox="0 0 105.348 100.436">
  <defs>
    <style>
      .cls-1 {
        fill: none;
        stroke: #e96d00;
        stroke-miterlimit: 10;
        stroke-width: 1.5px;
      }

      .cls-2, .cls-3, .cls-4 {
        fill: #e96d00;
        font-family: SegoeUI, Segoe UI;
      }

      .cls-2 {
        font-size: 23px;
      }

      .cls-3 {
        font-size: 13px;
      }

      .cls-4 {
        font-size: 6px;
      }
    </style>
  </defs>
  <g id="Group_345" data-name="Group 345" transform="translate(-0.012)">
    <g id="Group_344" data-name="Group 344" transform="translate(3.675 0.75)">
      <path id="Path_420" data-name="Path 420" class="cls-1" d="M102.2,7.932V60.9H53.673a1.549,1.549,0,0,0-1.547,1.547v8.549H19.106V65.356a.882.882,0,0,0-.881-.881H3.364a6.417,6.417,0,0,1-.034-.666V7.932A7.186,7.186,0,0,1,10.512.75h84.5A7.179,7.179,0,0,1,102.2,7.932Z" transform="translate(-3.33 -0.75)"/>
      <path id="Path_421" data-name="Path 421" class="cls-1" d="M96.56,10.808V60a2.664,2.664,0,0,1-.023.429H53.094a1.549,1.549,0,0,0-1.547,1.547v4.472H18.527V64.889a.882.882,0,0,0-.881-.881H9.21A6.357,6.357,0,0,1,7.81,60V10.808A6.453,6.453,0,0,1,14.258,4.36H90.112A6.446,6.446,0,0,1,96.56,10.808Z" transform="translate(-2.751 -0.283)"/>
      <path id="Path_422" data-name="Path 422" class="cls-1" d="M37.23,62.92V85.009H47.744" transform="translate(1.052 7.287)"/>
      <path id="Path_423" data-name="Path 423" class="cls-1" d="M48.818,82.48H28.92" transform="translate(-0.022 9.816)"/>
    </g>
    <path id="Path_424" data-name="Path 424" class="cls-1" d="M19.44,58.061V86.677H.75V58.061a.882.882,0,0,1,.881-.881H18.559A.882.882,0,0,1,19.44,58.061Z" transform="translate(0.012 7.295)"/>
    <path id="Path_425" data-name="Path 425" class="cls-1" d="M19.44,83.3v4.833a.882.882,0,0,1-.881.881H1.631a.882.882,0,0,1-.881-.881V83.3Z" transform="translate(0.012 10.672)"/>
    <path id="Path_426" data-name="Path 426" class="cls-1" d="M97.132,54.01H48.087a1.549,1.549,0,0,0-1.547,1.547v35.7A1.549,1.549,0,0,0,48.087,92.8H97.132a1.542,1.542,0,0,0,1.547-1.547v-35.7A1.542,1.542,0,0,0,97.132,54.01Zm-2.259,34.1a1.306,1.306,0,0,1-1.3,1.3H51.656a1.306,1.306,0,0,1-1.3-1.3V58.7a1.3,1.3,0,0,1,1.3-1.3H93.574a1.3,1.3,0,0,1,1.3,1.3V88.114Z" transform="translate(5.931 6.885)"/>
    <path id="Path_427" data-name="Path 427" class="cls-1" d="M94.436,58.309V87.726a1.306,1.306,0,0,1-1.3,1.3H51.219a1.306,1.306,0,0,1-1.3-1.3V58.309a1.3,1.3,0,0,1,1.3-1.3H93.137A1.3,1.3,0,0,1,94.436,58.309Z" transform="translate(6.368 7.273)"/>
    <line id="Line_28" data-name="Line 28" class="cls-1" x1="0.102" transform="translate(19.451 93.972)"/>
    <line id="Line_29" data-name="Line 29" class="cls-1" x1="0.102" transform="translate(0.66 93.972)"/>
    <text id="WEB" class="cls-2" transform="translate(28.484 39.046)"><tspan x="0" y="0">WEB</tspan></text>
    <text id="WEB-2" data-name="WEB" class="cls-3" transform="translate(64.415 83.101)"><tspan x="0" y="0">WEB</tspan></text>
    <text id="WEB-3" data-name="WEB" class="cls-4" transform="translate(3.865 80.591)"><tspan x="0" y="0">WEB</tspan></text>
  </g>
</svg>
