<svg id="Group_331" data-name="Group 331" xmlns="http://www.w3.org/2000/svg" viewBox="0 0 110.51 82.078">
  <defs>
    <style>
      .cls-1, .cls-2, .cls-3, .cls-4 {
        fill: none;
        stroke: #e96d00;
        stroke-miterlimit: 10;
      }

      .cls-1, .cls-2, .cls-4 {
        stroke-width: 1.5px;
      }

      .cls-2, .cls-3, .cls-4 {
        stroke-linejoin: round;
      }

      .cls-4 {
        stroke-linecap: round;
      }
    </style>
  </defs>
  <path id="Path_383" data-name="Path 383" class="cls-1" d="M77.341,3.816v23.52A27.109,27.109,0,0,0,61.57,73.319H27.116a3.08,3.08,0,0,1-3.066-3.076V67.987H50.064v-28.9H24.05V3.816A3.077,3.077,0,0,1,27.116.75h47.16A3.077,3.077,0,0,1,77.341,3.816Z" transform="translate(1.85)"/>
  <g id="Group_330" data-name="Group 330" transform="translate(0.75 39.091)">
    <path id="Path_384" data-name="Path 384" class="cls-2" d="M49.374,36.27v28.9h-.54L32.74,49.191Z" transform="translate(1.79 -36.27)"/>
    <path id="Path_385" data-name="Path 385" class="cls-2" d="M51.34,64.218H1.18L17.306,48.21l8.56,6.649.432.335,8.948-6.951Z" transform="translate(-0.716 -35.322)"/>
    <path id="Path_386" data-name="Path 386" class="cls-2" d="M17.341,49.158,1.214,65.166H.75V36.27Z" transform="translate(-0.75 -36.27)"/>
    <path id="Path_387" data-name="Path 387" class="cls-2" d="M51.914,36.27,35.28,49.191l-8.948,6.951-.432-.335-8.56-6.649L.75,36.27Z" transform="translate(-0.75 -36.27)"/>
    <line id="Line_11" data-name="Line 11" class="cls-2" x1="0.453" y2="0.443" transform="translate(16.591 12.446)"/>
    <line id="Line_12" data-name="Line 12" class="cls-2" x1="0.151" y2="0.151" transform="translate(0.313 28.896)"/>
    <line id="Line_13" data-name="Line 13" class="cls-2" x1="0.486" y1="0.475" transform="translate(34.045 12.446)"/>
    <line id="Line_14" data-name="Line 14" class="cls-2" x1="0.151" y1="0.151" transform="translate(50.625 28.896)"/>
  </g>
  <line id="Line_15" data-name="Line 15" class="cls-2" x2="53.291" transform="translate(25.9 11.523)"/>
  <circle id="Ellipse_40" data-name="Ellipse 40" class="cls-3" cx="1.965" cy="1.965" r="1.965" transform="translate(30.186 4.226)"/>
  <circle id="Ellipse_41" data-name="Ellipse 41" class="cls-3" cx="1.965" cy="1.965" r="1.965" transform="translate(36.295 4.226)"/>
  <circle id="Ellipse_42" data-name="Ellipse 42" class="cls-3" cx="1.965" cy="1.965" r="1.965" transform="translate(42.415 4.226)"/>
  <line id="Line_16" data-name="Line 16" class="cls-2" x2="31.886" transform="translate(32.42 19.1)"/>
  <line id="Line_17" data-name="Line 17" class="cls-2" x2="17.217" transform="translate(32.42 25.695)"/>
  <line id="Line_18" data-name="Line 18" class="cls-2" x2="31.033" transform="translate(32.42 32.28)"/>
  <path id="Path_388" data-name="Path 388" class="cls-2" d="M71.58,70.928a1.306,1.306,0,0,0,.205-.011A20.116,20.116,0,0,1,74.645,32a19.244,19.244,0,0,1,3.465-.3,20,20,0,0,1,9.628,2.45l1.77-3.292" transform="translate(4.546 2.391)"/>
  <path id="Path_389" data-name="Path 389" class="cls-2" d="M59.389,71.38A27.109,27.109,0,0,1,75.159,25.4a26.191,26.191,0,0,1,3.465-.227,26.977,26.977,0,0,1,9.693,1.781" transform="translate(4.032 1.939)"/>
  <path id="Path_390" data-name="Path 390" class="cls-2" d="M70.58,67.981a1.306,1.306,0,0,0,.205-.011" transform="translate(5.545 5.338)"/>
  <path id="Path_391" data-name="Path 391" class="cls-2" d="M94.064,30.03A27.106,27.106,0,1,1,58.81,70.994" transform="translate(4.611 2.325)"/>
  <path id="Path_392" data-name="Path 392" class="cls-2" d="M88.284,30.86l-1.77,3.292-3.076,5.7-2.893,5.375A7.549,7.549,0,0,1,73.42,58.536" transform="translate(5.771 2.391)"/>
  <path id="Path_393" data-name="Path 393" class="cls-2" d="M71.785,70.855a20.116,20.116,0,0,1,2.86-38.913,19.244,19.244,0,0,1,3.465-.3,20,20,0,0,1,9.628,2.45l-3.076,5.7A13.647,13.647,0,1,0,74.645,64.961" transform="translate(4.546 2.453)"/>
  <path id="Path_394" data-name="Path 394" class="cls-2" d="M73.63,58.294a7.471,7.471,0,0,0,3.465.842,7.55,7.55,0,0,0,3.659-14.151l2.893-5.375,3.076-5.7A20.122,20.122,0,0,1,77.1,71.7a19.768,19.768,0,0,1-6.325-1.025" transform="translate(5.561 2.633)"/>
  <path id="Path_395" data-name="Path 395" class="cls-2" d="M74.169,64.485A13.647,13.647,0,1,1,84.186,39.313l-2.893,5.375A7.549,7.549,0,1,0,74.169,58" transform="translate(5.022 2.93)"/>
  <path id="Path_396" data-name="Path 396" class="cls-2" d="M73.42,57.875a7.471,7.471,0,0,0,3.465.842,7.55,7.55,0,0,0,3.659-14.151l2.893-5.375A13.65,13.65,0,0,1,73.42,64.362" transform="translate(5.771 3.053)"/>
  <path id="Path_397" data-name="Path 397" class="cls-2" d="M84.731,50.835a7.548,7.548,0,0,1-7.545,7.556,7.471,7.471,0,0,1-3.465-.842,7.546,7.546,0,0,1,0-13.417,7.549,7.549,0,0,1,11.01,6.7Z" transform="translate(5.47 3.378)"/>
  <path id="Path_398" data-name="Path 398" class="cls-2" d="M5.45,36.4V31.75H24.879" transform="translate(0.373 2.462)"/>
  <path id="Path_399" data-name="Path 399" class="cls-2" d="M9.09,32.323V27.66h15.5" transform="translate(0.662 2.137)"/>
  <line id="Line_19" data-name="Line 19" class="cls-4" x1="2.968" y2="5.516" transform="translate(83.347 47.618)"/>
  <path id="Path_400" data-name="Path 400" class="cls-2" d="M93.272,21.09,88.89,29.24,87.346,32.1,85.641,27.74l-.421-1.069L90.833,15.24l2.245,5.915Z" transform="translate(6.708 1.151)"/>
  <path id="Path_401" data-name="Path 401" class="cls-2" d="M98.977,19.02,93.364,30.451,91.81,30.9l-4.458,1.3-.162-.4,1.544-2.86,4.382-8.15Z" transform="translate(6.865 1.451)"/>
</svg>
