<svg xmlns="http://www.w3.org/2000/svg" viewBox="0 0 88.467 67.109">
  <defs>
    <style>
      .cls-1, .cls-2, .cls-3, .cls-5 {
        fill: none;
        stroke: #fff;
      }

      .cls-1, .cls-2, .cls-3 {
        stroke-linecap: round;
        stroke-linejoin: round;
        stroke-width: 1.5px;
      }

      .cls-1, .cls-5 {
        stroke-miterlimit: 10;
      }

      .cls-3 {
        stroke-dasharray: 4.829 4.829;
      }

      .cls-4, .cls-6 {
        fill: #fff;
      }

      .cls-6 {
        font-size: 28px;
        font-family: SegoeUI, Segoe UI;
      }
    </style>
  </defs>
  <g id="Group_425" data-name="Group 425" transform="translate(0 0.004)">
    <g id="Group_424" data-name="Group 424" transform="translate(0 -0.004)">
      <path id="Path_1336" data-name="Path 1336" class="cls-1" d="M15.62,34.1a30.419,30.419,0,0,1,60.838,0" transform="translate(-1.596 -0.372)"/>
      <g id="Group_422" data-name="Group 422" transform="translate(14.024 33.727)">
        <g id="Group_421" data-name="Group 421">
          <path id="Path_1337" data-name="Path 1337" class="cls-2" d="M83.371,37.56c0,.754-.027,1.5-.081,2.245" transform="translate(-22.533 -37.56)"/>
          <path id="Path_1338" data-name="Path 1338" class="cls-3" d="M75.793,44.6A30.427,30.427,0,0,1,15.97,42.47" transform="translate(-15.656 -38.062)"/>
          <path id="Path_1339" data-name="Path 1339" class="cls-2" d="M15.7,39.8c-.054-.745-.081-1.49-.081-2.245" transform="translate(-15.62 -37.56)"/>
        </g>
      </g>
      <rect id="Rectangle_80" data-name="Rectangle 80" class="cls-4" width="6.025" height="6.025" transform="translate(10.774 30.818)"/>
      <rect id="Rectangle_81" data-name="Rectangle 81" class="cls-4" width="6.025" height="6.025" transform="translate(71.612 30.818)"/>
      <rect id="Rectangle_82" data-name="Rectangle 82" class="cls-4" width="6.025" height="6.025" transform="translate(41.193 61.084)"/>
      <g id="Group_423" data-name="Group 423">
        <rect id="Rectangle_83" data-name="Rectangle 83" class="cls-4" width="6.025" height="6.025" transform="translate(41.193 0.004)"/>
        <rect id="Rectangle_84" data-name="Rectangle 84" class="cls-4" width="6.025" height="6.025" transform="translate(0 0.004)"/>
        <rect id="Rectangle_85" data-name="Rectangle 85" class="cls-4" width="6.025" height="6.025" transform="translate(88.467 6.025) rotate(180)"/>
        <line id="Line_42" data-name="Line 42" class="cls-5" x2="82.602" transform="translate(3.035 2.778)"/>
      </g>
    </g>
    <text id="_" data-name="&lt;/&gt;" class="cls-6" transform="translate(22.619 40.502)"><tspan x="0" y="0">&lt;/&gt;</tspan></text>
  </g>
</svg>
