<svg xmlns="http://www.w3.org/2000/svg" viewBox="0 0 96.944 73.773">
  <defs>
    <style>
      .cls-1, .cls-2, .cls-3, .cls-4 {
        fill: none;
        stroke: #fff;
        stroke-miterlimit: 10;
      }

      .cls-1 {
        stroke-width: 1.388px;
      }

      .cls-2, .cls-4 {
        stroke-width: 1.5px;
      }

      .cls-3 {
        stroke-width: 1.259px;
      }

      .cls-4 {
        stroke-linecap: round;
        stroke-linejoin: round;
      }
    </style>
  </defs>
  <g id="Group_432" data-name="Group 432" transform="translate(0.004)">
    <path id="Path_1352" data-name="Path 1352" class="cls-1" d="M34.517,4.98v34l-.186.109L5.305,55.846A33.806,33.806,0,0,1,34.517,4.98Z" transform="translate(0 0.466)"/>
    <path id="Path_1353" data-name="Path 1353" class="cls-1" d="M63.235,53.089A33.829,33.829,0,0,1,4.91,52.925L33.936,36.17l.186.1Z" transform="translate(0.395 3.388)"/>
    <path id="Path_1354" data-name="Path 1354" class="cls-1" d="M69.836,38.957A33.62,33.62,0,0,1,65.352,52.31L36.25,35.5V1.28A33.616,33.616,0,0,1,56.1,7.722,17.064,17.064,0,1,0,69.836,38.957Z" transform="translate(3.331 0.12)"/>
    <path id="Path_1355" data-name="Path 1355" class="cls-1" d="M31.635,36.08v.208l-.175-.1Z" transform="translate(2.882 3.379)"/>
    <path id="Path_1356" data-name="Path 1356" class="cls-1" d="M31.62,66.82" transform="translate(2.897 6.259)"/>
    <path id="Path_1357" data-name="Path 1357" class="cls-2" d="M34.11,0" transform="translate(3.13)"/>
    <path id="Path_1358" data-name="Path 1358" class="cls-2" d="M63.13,16.85" transform="translate(5.848 1.578)"/>
    <path id="Path_1359" data-name="Path 1359" class="cls-2" d="M5.25,50.26" transform="translate(0.427 4.707)"/>
    <path id="Path_1360" data-name="Path 1360" class="cls-2" d="M4.99,17" transform="translate(0.403 1.592)"/>
    <g id="Group_431" data-name="Group 431" transform="translate(48.923 6.536)">
      <path id="Path_1361" data-name="Path 1361" class="cls-2" d="M73.947,11.011a17.056,17.056,0,1,0-4.911,27.506,17.242,17.242,0,0,0,4.834-3.379A17.063,17.063,0,0,0,73.947,11.011ZM70.578,31.824A13.918,13.918,0,0,1,69.211,33a12.427,12.427,0,1,1,1.367-1.181Z" transform="translate(-44.792 -5.976)"/>
      <path id="Path_1362" data-name="Path 1362" class="cls-3" d="M70.179,31.424A13.918,13.918,0,0,1,68.812,32.6a12.427,12.427,0,1,1,1.367-1.181Z" transform="translate(-44.393 -5.576)"/>
      <path id="Path_1363" data-name="Path 1363" class="cls-2" d="M74.222,30.1a3.8,3.8,0,0,1-5.392,5.348" transform="translate(-42.541 -3.717)"/>
      <path id="Path_1364" data-name="Path 1364" class="cls-4" d="M75.276,32.75,88.783,45.9a2.69,2.69,0,0,1-.011,3.8h0a2.69,2.69,0,0,1-3.8-.011L71.47,36.534" transform="translate(-42.294 -3.468)"/>
    </g>
  </g>
</svg>
