<svg xmlns="http://www.w3.org/2000/svg" viewBox="0 0 116.032 93.859">
  <defs>
    <style>
      .cls-1, .cls-2, .cls-3 {
        fill: none;
        stroke: #e96d00;
        stroke-miterlimit: 10;
      }

      .cls-1, .cls-2 {
        stroke-width: 1.5px;
      }

      .cls-2 {
        stroke-linecap: round;
        stroke-linejoin: round;
      }

      .cls-4, .cls-5 {
        fill: #e96d00;
      }

      .cls-5 {
        font-size: 26px;
        font-family: SegoeUI, Segoe UI;
      }
    </style>
  </defs>
  <g id="Group_343" data-name="Group 343" transform="translate(0.006)">
    <g id="Group_337" data-name="Group 337" transform="translate(27.213 0.75)">
      <path id="Path_410" data-name="Path 410" class="cls-1" d="M113.184,7.157v58.1a6.4,6.4,0,0,1-6.407,6.407H73.365a28.5,28.5,0,0,0,2.878-3.627,30.585,30.585,0,0,0,3.551-6.971,31.591,31.591,0,0,0-2.747-27.212,30.163,30.163,0,0,0-2.465-3.475c-.467-.554-.923-1.108-1.422-1.618a31.578,31.578,0,0,0-43.022-2.932c-.174.141-.337.282-.51.434a31.128,31.128,0,0,0-4.506,4.691V7.157A6.4,6.4,0,0,1,31.527.75h75.261A6.4,6.4,0,0,1,113.184,7.157Z" transform="translate(-25.12 -0.75)"/>
      <path id="Path_411" data-name="Path 411" class="cls-1" d="M108.321,9.844V62a5.746,5.746,0,0,1-5.744,5.744H75.886a30.585,30.585,0,0,0,3.551-6.971A31.591,31.591,0,0,0,76.69,33.56a30.162,30.162,0,0,0-2.465-3.475c-.467-.554-.923-1.108-1.422-1.618A31.578,31.578,0,0,0,29.78,25.535c-.174.141-.337.282-.51.434V9.844A5.739,5.739,0,0,1,35.014,4.1h67.563A5.733,5.733,0,0,1,108.321,9.844Z" transform="translate(-24.764 -0.462)"/>
      <path id="Path_412" data-name="Path 412" class="cls-1" d="M76.391,66.02V85.7H56.52V74.957" transform="translate(-22.424 4.854)"/>
      <line id="Line_27" data-name="Line 27" class="cls-1" x2="36.452" transform="translate(25.735 90.55)"/>
    </g>
    <g id="Group_338" data-name="Group 338" transform="translate(0.748 18.717)">
      <path id="Path_413" data-name="Path 413" class="cls-1" d="M77.571,32.416a30.163,30.163,0,0,0-2.465-3.475c-.467-.554-.923-1.108-1.422-1.618a31.578,31.578,0,0,0-43.022-2.932c-.174.141-.337.282-.51.434a31.128,31.128,0,0,0-4.506,4.691A31.6,31.6,0,0,0,70.567,73.385a29.892,29.892,0,0,0,3.344-3.16A28.5,28.5,0,0,0,76.789,66.6a30.585,30.585,0,0,0,3.551-6.971A31.672,31.672,0,0,0,77.571,32.416Zm0,20.968A27.04,27.04,0,0,1,71.425,66.6a26.4,26.4,0,0,1-3.562,3.486c-.065.043-.119.1-.185.141a27.036,27.036,0,0,1-7.949,4.43,27.319,27.319,0,0,1-26.2-4.43A26.176,26.176,0,0,1,29.4,66.143a27.69,27.69,0,0,1-3.768-6.081,27.362,27.362,0,0,1,0-22.315,26.777,26.777,0,0,1,4.506-6.971A25.956,25.956,0,0,1,33.332,27.7,27.308,27.308,0,0,1,70.393,30.07c.5.5.956,1.021,1.4,1.564a27.279,27.279,0,0,1,5.777,21.75Z" transform="translate(0.82 -17.297)"/>
      <path id="Path_414" data-name="Path 414" class="cls-1" d="M77.235,53.046a27.04,27.04,0,0,1-6.146,13.215,26.4,26.4,0,0,1-3.562,3.486c-.065.043-.119.1-.185.141a27.036,27.036,0,0,1-7.949,4.43,27.319,27.319,0,0,1-26.2-4.43,26.176,26.176,0,0,1-4.126-4.083A27.69,27.69,0,0,1,25.3,59.724a27.362,27.362,0,0,1,0-22.315A26.777,26.777,0,0,1,29.8,30.439,25.956,25.956,0,0,1,33,27.366a27.308,27.308,0,0,1,37.061,2.367c.5.5.956,1.021,1.4,1.564a27.279,27.279,0,0,1,5.777,21.75Z" transform="translate(1.156 -16.959)"/>
      <path id="Path_415" data-name="Path 415" class="cls-1" d="M21.815,59.6a7.039,7.039,0,0,0,8.893,10.913" transform="translate(0.838 -13.664)"/>
      <path id="Path_416" data-name="Path 416" class="cls-2" d="M20.448,64.28,2.574,78.831a4.988,4.988,0,0,0-.717,6.993h0a4.988,4.988,0,0,0,6.993.717L26.724,71.99" transform="translate(-0.748 -13.262)"/>
    </g>
    <g id="Group_342" data-name="Group 342" transform="translate(75.251 7.993)">
      <path id="Path_417" data-name="Path 417" class="cls-3" d="M81.573,30.891v27.57h-5.9A31.592,31.592,0,0,0,72.93,31.249V30.88h8.643Z" transform="translate(-69.053 -5.406)"/>
      <rect id="Rectangle_23" data-name="Rectangle 23" class="cls-3" width="8.643" height="36.757" transform="translate(20.284 16.299)"/>
      <g id="Group_341" data-name="Group 341">
        <g id="Group_340" data-name="Group 340">
          <path id="Path_418" data-name="Path 418" class="cls-3" d="M69.36,28.086,72.2,25.7l17.526-6.265L98.2,8.53" transform="translate(-69.36 -7.325)"/>
          <g id="Group_339" data-name="Group 339" transform="translate(25.507)">
            <path id="Path_419" data-name="Path 419" class="cls-4" d="M95.576,12.22l-.51-.163,1.086-3.388-3.008,1.889L92.85,10.1,97.128,7.42Z" transform="translate(-92.85 -7.42)"/>
          </g>
        </g>
      </g>
    </g>
    <text id="SEO" class="cls-5" transform="translate(29.095 57.978)"><tspan x="0" y="0">SEO</tspan></text>
  </g>
</svg>
