<svg xmlns="http://www.w3.org/2000/svg" viewBox="0 0 128.85 92.575">
  <defs>
    <style>
      .cls-1 {
        fill: none;
        stroke: #e96d00;
        stroke-miterlimit: 10;
        stroke-width: 1.5px;
      }

      .cls-2 {
        fill: #e96d00;
        font-size: 13px;
        font-family: SegoeUI, Segoe UI;
      }
    </style>
  </defs>
  <g id="Group_329" data-name="Group 329" transform="translate(0 0.33)">
    <g id="Group_326" data-name="Group 326" transform="translate(0.75 2.824)">
      <path id="Path_375" data-name="Path 375" class="cls-1" d="M46.324,29.592H31.537v18.68c-.173.012-.345.012-.518.012a15.612,15.612,0,1,1,15.3-18.693Z" transform="translate(2.657 1.214)"/>
      <path id="Path_376" data-name="Path 376" class="cls-1" d="M68.522,28.932v4.1H34.944v33.27H41.82V70H27.033v-5.89a27.807,27.807,0,0,1-6.851-2.8l-4.128,4.14L5.593,54.994,9.585,51a29.122,29.122,0,0,1-3.093-7.282H.75V28.932H6.369a28.932,28.932,0,0,1,3.216-7.7L5.593,17.238,16.054,6.777l4.128,4.14a27.807,27.807,0,0,1,6.851-2.8V2.23H41.82V8.12a28.821,28.821,0,0,1,7.492,3.154l4.2-4.2L63.975,17.534l-4.337,4.325a28.825,28.825,0,0,1,2.846,7.073Z" transform="translate(-0.75 -2.23)"/>
    </g>
    <g id="Group_327" data-name="Group 327" transform="translate(34.944 33.63)">
      <path id="Path_377" data-name="Path 377" class="cls-1" d="M28.5,27.23V60.5H58.455c.1-4.177,1.725-6.925,4.2-2.551a12.1,12.1,0,0,1,.936,2.551c.505,1.787.961,3.7,1.762,4.263,1.232.863,2.76,1.442,3.007.431.074-.283.123-2.156.148-4.695.025-1.959.037-4.337.037-6.654H63.865V47.192h4.695c-.012-2.009-.012-3.339-.012-3.339s.2-3.191,2.859-3.142c2.514.049,2.723,3.808,2.723,3.808v6.937s1.084-2.009,2.28-2.058a1.724,1.724,0,0,1,.764.136V47.192h6.654V51a3.631,3.631,0,0,1,.271.456.969.969,0,0,1,.049-.111A3.134,3.134,0,0,1,86.71,49.4a3.23,3.23,0,0,1,2.859,2.058l.025,9.044h32.062V27.23ZM57.211,53.846H50.557V47.192h6.654Zm39.924,0H90.481V47.192h6.654Zm13.308,0h-6.654V47.192h6.654Z" transform="translate(-28.5 -27.23)"/>
      <rect id="Rectangle_9" data-name="Rectangle 9" class="cls-1" width="6.654" height="6.654" transform="translate(22.057 19.962)"/>
      <path id="Path_378" data-name="Path 378" class="cls-1" d="M61.895,43.43c0,1.836,0,4.214-.012,6.654H57.2V43.43Z" transform="translate(-21.835 -23.468)"/>
      <rect id="Rectangle_10" data-name="Rectangle 10" class="cls-1" width="6.654" height="6.654" transform="translate(61.981 19.962)"/>
      <rect id="Rectangle_11" data-name="Rectangle 11" class="cls-1" width="6.654" height="6.654" transform="translate(75.289 19.962)"/>
    </g>
    <rect id="Rectangle_12" data-name="Rectangle 12" class="cls-1" width="6.654" height="6.654" transform="translate(43.693 40.284)"/>
    <rect id="Rectangle_13" data-name="Rectangle 13" class="cls-1" width="6.654" height="6.654" transform="translate(57.001 40.284)"/>
    <rect id="Rectangle_14" data-name="Rectangle 14" class="cls-1" width="6.654" height="6.654" transform="translate(70.309 40.284)"/>
    <rect id="Rectangle_15" data-name="Rectangle 15" class="cls-1" width="6.654" height="6.654" transform="translate(83.617 40.284)"/>
    <rect id="Rectangle_16" data-name="Rectangle 16" class="cls-1" width="6.654" height="6.654" transform="translate(96.925 40.284)"/>
    <rect id="Rectangle_17" data-name="Rectangle 17" class="cls-1" width="6.654" height="6.654" transform="translate(110.233 40.284)"/>
    <rect id="Rectangle_18" data-name="Rectangle 18" class="cls-1" width="6.654" height="6.654" transform="translate(43.693 53.592)"/>
    <rect id="Rectangle_19" data-name="Rectangle 19" class="cls-1" width="6.654" height="6.654" transform="translate(57.001 53.592)"/>
    <path id="Path_379" data-name="Path 379" class="cls-1" d="M61.895,43.43c0,1.836,0,4.214-.012,6.654H57.2V43.43Z" transform="translate(13.109 10.162)"/>
    <path id="Path_380" data-name="Path 380" class="cls-1" d="M74.654,43.43v3.808a3.088,3.088,0,0,0-2.452-1.6c-1.688.025-2.575,2.058-2.575,2.058s-.025-.062-.074-.16A3.479,3.479,0,0,0,68,45.771V43.43h6.654Z" transform="translate(15.617 10.162)"/>
    <rect id="Rectangle_20" data-name="Rectangle 20" class="cls-1" width="6.654" height="6.654" transform="translate(96.925 53.592)"/>
    <rect id="Rectangle_21" data-name="Rectangle 21" class="cls-1" width="6.654" height="6.654" transform="translate(110.233 53.592)"/>
    <path id="Path_381" data-name="Path 381" class="cls-1" d="M104.6,20.379H73.8L66.75,25.986V3.559A2.808,2.808,0,0,1,69.559.75h35.057a2.808,2.808,0,0,1,2.809,2.809V17.582A2.824,2.824,0,0,1,104.6,20.379Z" transform="translate(15.327 0.251)"/>
    <text id="_" data-name="&lt;/&gt;" class="cls-2" transform="translate(90.702 13.67)"><tspan x="0" y="0">&lt;/&gt;</tspan></text>
    <g id="Group_328" data-name="Group 328" transform="translate(64.894 47.11)">
      <path id="Path_382" data-name="Path 382" class="cls-1" d="M65.33,82.555l.074-6.962s-8.17-4.424-11.558-11.09a18.4,18.4,0,0,1-1.035-6.543c.1-4.177,1.725-6.925,4.2-2.551a12.1,12.1,0,0,1,.936,2.551c.505,1.787.961,3.7,1.762,4.263,1.232.863,2.76,1.442,3.007.431.074-.283.123-2.156.148-4.695.025-1.959.037-4.337.037-6.654.012-2.44.012-4.818.012-6.654-.012-2.009-.012-3.339-.012-3.339s.2-3.191,2.859-3.142c2.514.049,2.723,3.808,2.723,3.808v6.937s1.084-2.009,2.28-2.058a1.724,1.724,0,0,1,.764.136,3.479,3.479,0,0,1,1.553,1.762c.049.1.074.16.074.16s.887-2.033,2.575-2.058a3.088,3.088,0,0,1,2.452,1.6,3.631,3.631,0,0,1,.271.456A.97.97,0,0,1,78.5,48.8a3.134,3.134,0,0,1,2.563-1.947,3.23,3.23,0,0,1,2.859,2.058l.025,9.044L84,82.555Z" transform="translate(-52.806 -38.17)"/>
      <line id="Line_5" data-name="Line 5" class="cls-1" y2="10.4" transform="translate(15.654 10.302)"/>
      <line id="Line_6" data-name="Line 6" class="cls-1" y1="10.437" transform="translate(20.275 10.265)"/>
      <line id="Line_7" data-name="Line 7" class="cls-1" y1="0.296" transform="translate(20.275 10.29)"/>
      <line id="Line_8" data-name="Line 8" class="cls-1" y1="11.004" transform="translate(25.697 9.698)"/>
      <line id="Line_9" data-name="Line 9" class="cls-1" y1="0.345" transform="translate(25.697 10.29)"/>
      <line id="Line_10" data-name="Line 10" class="cls-1" x2="17.177" transform="translate(13.362 37.719)"/>
    </g>
  </g>
</svg>
