<svg id="Layer_1" data-name="Layer 1" xmlns="http://www.w3.org/2000/svg" xmlns:xlink="http://www.w3.org/1999/xlink" viewBox="0 0 1921.33 251.67"><defs><style>.cls-1{fill:#fff;}.cls-2{fill:url(#linear-gradient);}.cls-3{fill:url(#linear-gradient-2);}.cls-4{fill:url(#linear-gradient-3);}.cls-5{fill:url(#linear-gradient-4);}.cls-6{fill:url(#linear-gradient-5);}</style><linearGradient id="linear-gradient" x1="961.47" y1="127.09" x2="960.63" y2="-6.27" gradientUnits="userSpaceOnUse"><stop offset="0" stop-color="#ececec"/><stop offset="1" stop-color="#efefef"/></linearGradient><linearGradient id="linear-gradient-2" x1="654.44" y1="521.88" x2="654.43" y2="520.93" gradientTransform="matrix(616.83, 0, 0, -251.67, -403370.62, 131352.84)" xlink:href="#linear-gradient"/><linearGradient id="linear-gradient-3" x1="654.62" y1="521.36" x2="654.62" y2="520.36" gradientTransform="matrix(746, 0, 0, -164, -487791.67, 85572.67)" gradientUnits="userSpaceOnUse"><stop offset="0" stop-color="#efecec"/><stop offset="1" stop-color="#e5e5e5"/></linearGradient><linearGradient id="linear-gradient-4" x1="655.32" y1="518.04" x2="654.41" y2="519.66" gradientTransform="matrix(952, 0, 0, -70, -622376.67, 36471.67)" gradientUnits="userSpaceOnUse"><stop offset="0" stop-color="#f6f6f6"/><stop offset="1" stop-color="#d4d4d4"/></linearGradient><linearGradient id="linear-gradient-5" x1="655.66" y1="516.16" x2="654.71" y2="518.89" gradientTransform="matrix(1084, 0, 0, -64, -708527.67, 33282.67)" gradientUnits="userSpaceOnUse"><stop offset="0" stop-color="#fff"/><stop offset="1" stop-color="#dedede"/></linearGradient></defs><title>bg-home-service</title><rect class="cls-1" width="1921.33" height="251.67"/><polyline class="cls-2" points="1921.33 89.15 1296.65 131.83 528.33 136.67 174.71 75.67 0 0 1921.33 0"/><g id="Group_433" data-name="Group 433"><path id="Path_429" data-name="Path 429" class="cls-3" d="M616.83,233.17l-173.5,18.5L0,0Z" transform="translate(0)"/><path id="Path_430" data-name="Path 430" class="cls-4" d="M183.33,69.67l433,164,313-33Z" transform="translate(0)"/><path id="Path_431" data-name="Path 431" class="cls-5" d="M528.33,130.67l952,12-553,58Z" transform="translate(0)"/><path id="Path_432" data-name="Path 432" class="cls-6" d="M837.33,134.67l1084-55v17l-457,47Z" transform="translate(0)"/></g></svg>